<mxfile host="Electron" agent="Mozilla/5.0 (Windows NT 10.0; Win64; x64) AppleWebKit/537.36 (KHTML, like Gecko) draw.io/24.7.8 Chrome/128.0.6613.36 Electron/32.0.1 Safari/537.36" version="24.7.8">
  <diagram name="Страница — 1" id="XgxFCHNT0tUZBNWSLZxV">
    <mxGraphModel dx="1690" dy="629" grid="0" gridSize="10" guides="1" tooltips="1" connect="1" arrows="1" fold="1" page="0" pageScale="1" pageWidth="827" pageHeight="1169" math="0" shadow="0">
      <root>
        <mxCell id="0" />
        <mxCell id="1" parent="0" />
        <mxCell id="LBwWEz1FVwALZOgoAv8b-7" value="" style="edgeStyle=orthogonalEdgeStyle;rounded=0;orthogonalLoop=1;jettySize=auto;html=1;" parent="1" source="LBwWEz1FVwALZOgoAv8b-1" target="LBwWEz1FVwALZOgoAv8b-5" edge="1">
          <mxGeometry relative="1" as="geometry" />
        </mxCell>
        <mxCell id="LBwWEz1FVwALZOgoAv8b-1" value="Начало" style="ellipse;whiteSpace=wrap;html=1;" parent="1" vertex="1">
          <mxGeometry x="43" y="37" width="120" height="80" as="geometry" />
        </mxCell>
        <mxCell id="GMteoEHUk3SbCmujjQgq-4" style="edgeStyle=orthogonalEdgeStyle;rounded=0;orthogonalLoop=1;jettySize=auto;html=1;" parent="1" source="LBwWEz1FVwALZOgoAv8b-3" target="LBwWEz1FVwALZOgoAv8b-4" edge="1">
          <mxGeometry relative="1" as="geometry" />
        </mxCell>
        <mxCell id="mXQ_ZJh1T7watDNRMANd-10" style="edgeStyle=orthogonalEdgeStyle;rounded=0;orthogonalLoop=1;jettySize=auto;html=1;" parent="1" source="LBwWEz1FVwALZOgoAv8b-3" target="bmEGlPsIjCVy9guxLpB3-14" edge="1">
          <mxGeometry relative="1" as="geometry">
            <Array as="points">
              <mxPoint x="176" y="403" />
              <mxPoint x="176" y="677" />
              <mxPoint x="103" y="677" />
            </Array>
          </mxGeometry>
        </mxCell>
        <mxCell id="LBwWEz1FVwALZOgoAv8b-3" value="введено не&lt;div&gt;целое число?&lt;/div&gt;" style="rhombus;whiteSpace=wrap;html=1;" parent="1" vertex="1">
          <mxGeometry x="51.78" y="359" width="102.44" height="88" as="geometry" />
        </mxCell>
        <mxCell id="IVB1yO799H7LrM7W40AV-2" style="edgeStyle=orthogonalEdgeStyle;rounded=0;orthogonalLoop=1;jettySize=auto;html=1;" parent="1" source="LBwWEz1FVwALZOgoAv8b-4" target="IVB1yO799H7LrM7W40AV-1" edge="1">
          <mxGeometry relative="1" as="geometry" />
        </mxCell>
        <mxCell id="LBwWEz1FVwALZOgoAv8b-4" value="Введено некоректное значение" style="shape=document;whiteSpace=wrap;html=1;boundedLbl=1;" parent="1" vertex="1">
          <mxGeometry x="43" y="469" width="120" height="80" as="geometry" />
        </mxCell>
        <mxCell id="GMteoEHUk3SbCmujjQgq-7" style="edgeStyle=orthogonalEdgeStyle;rounded=0;orthogonalLoop=1;jettySize=auto;html=1;" parent="1" source="LBwWEz1FVwALZOgoAv8b-5" target="LBwWEz1FVwALZOgoAv8b-6" edge="1">
          <mxGeometry relative="1" as="geometry" />
        </mxCell>
        <mxCell id="LBwWEz1FVwALZOgoAv8b-5" value="Введите длину массива:" style="shape=document;whiteSpace=wrap;html=1;boundedLbl=1;" parent="1" vertex="1">
          <mxGeometry x="42" y="146" width="120" height="80" as="geometry" />
        </mxCell>
        <mxCell id="GMteoEHUk3SbCmujjQgq-2" style="edgeStyle=orthogonalEdgeStyle;rounded=0;orthogonalLoop=1;jettySize=auto;html=1;entryX=0.5;entryY=0;entryDx=0;entryDy=0;" parent="1" source="LBwWEz1FVwALZOgoAv8b-6" target="LBwWEz1FVwALZOgoAv8b-3" edge="1">
          <mxGeometry relative="1" as="geometry" />
        </mxCell>
        <mxCell id="LBwWEz1FVwALZOgoAv8b-6" value="lenmass" style="shape=parallelogram;perimeter=parallelogramPerimeter;whiteSpace=wrap;html=1;fixedSize=1;" parent="1" vertex="1">
          <mxGeometry x="43" y="266" width="120" height="60" as="geometry" />
        </mxCell>
        <mxCell id="GMteoEHUk3SbCmujjQgq-17" value="" style="edgeStyle=orthogonalEdgeStyle;rounded=0;orthogonalLoop=1;jettySize=auto;html=1;" parent="1" source="bmEGlPsIjCVy9guxLpB3-1" target="bmEGlPsIjCVy9guxLpB3-31" edge="1">
          <mxGeometry relative="1" as="geometry" />
        </mxCell>
        <mxCell id="bmEGlPsIjCVy9guxLpB3-1" value="nums[i]" style="shape=parallelogram;perimeter=parallelogramPerimeter;whiteSpace=wrap;html=1;fixedSize=1;" parent="1" vertex="1">
          <mxGeometry x="242" y="332" width="120" height="60" as="geometry" />
        </mxCell>
        <mxCell id="mXQ_ZJh1T7watDNRMANd-16" value="" style="edgeStyle=orthogonalEdgeStyle;rounded=0;orthogonalLoop=1;jettySize=auto;html=1;" parent="1" source="bmEGlPsIjCVy9guxLpB3-2" target="bmEGlPsIjCVy9guxLpB3-29" edge="1">
          <mxGeometry relative="1" as="geometry" />
        </mxCell>
        <mxCell id="bmEGlPsIjCVy9guxLpB3-2" value="Введите массив:" style="shape=document;whiteSpace=wrap;html=1;boundedLbl=1;" parent="1" vertex="1">
          <mxGeometry x="242" y="120" width="120" height="80" as="geometry" />
        </mxCell>
        <mxCell id="bmEGlPsIjCVy9guxLpB3-20" value="" style="edgeStyle=orthogonalEdgeStyle;rounded=0;orthogonalLoop=1;jettySize=auto;html=1;" parent="1" source="bmEGlPsIjCVy9guxLpB3-4" target="bmEGlPsIjCVy9guxLpB3-7" edge="1">
          <mxGeometry relative="1" as="geometry" />
        </mxCell>
        <mxCell id="P1nM6_UvGkQiOIyWBsLS-10" style="edgeStyle=orthogonalEdgeStyle;rounded=0;orthogonalLoop=1;jettySize=auto;html=1;" parent="1" source="bmEGlPsIjCVy9guxLpB3-4" target="P1nM6_UvGkQiOIyWBsLS-7" edge="1">
          <mxGeometry relative="1" as="geometry">
            <Array as="points">
              <mxPoint x="662" y="160" />
              <mxPoint x="662" y="489" />
              <mxPoint x="566" y="489" />
            </Array>
          </mxGeometry>
        </mxCell>
        <mxCell id="bmEGlPsIjCVy9guxLpB3-4" value="i = 0;i&amp;lt;lenmass;i++" style="shape=hexagon;perimeter=hexagonPerimeter2;whiteSpace=wrap;html=1;fixedSize=1;" parent="1" vertex="1">
          <mxGeometry x="480" y="120" width="120" height="80" as="geometry" />
        </mxCell>
        <mxCell id="bmEGlPsIjCVy9guxLpB3-54" style="edgeStyle=orthogonalEdgeStyle;rounded=0;orthogonalLoop=1;jettySize=auto;html=1;entryX=0;entryY=0.5;entryDx=0;entryDy=0;" parent="1" source="bmEGlPsIjCVy9guxLpB3-7" target="bmEGlPsIjCVy9guxLpB3-4" edge="1">
          <mxGeometry relative="1" as="geometry">
            <Array as="points">
              <mxPoint x="625" y="272" />
              <mxPoint x="625" y="464" />
              <mxPoint x="540" y="464" />
              <mxPoint x="540" y="497" />
              <mxPoint x="460" y="497" />
              <mxPoint x="460" y="160" />
            </Array>
          </mxGeometry>
        </mxCell>
        <mxCell id="P1nM6_UvGkQiOIyWBsLS-3" style="edgeStyle=orthogonalEdgeStyle;rounded=0;orthogonalLoop=1;jettySize=auto;html=1;" parent="1" source="bmEGlPsIjCVy9guxLpB3-7" target="bmEGlPsIjCVy9guxLpB3-9" edge="1">
          <mxGeometry relative="1" as="geometry" />
        </mxCell>
        <mxCell id="bmEGlPsIjCVy9guxLpB3-7" value="&lt;font style=&quot;font-size: 11px;&quot;&gt;nums[i] % 2 != 0&lt;/font&gt;&lt;div style=&quot;font-size: 11px;&quot;&gt;&lt;br&gt;&lt;/div&gt;" style="rhombus;whiteSpace=wrap;html=1;" parent="1" vertex="1">
          <mxGeometry x="467" y="230" width="146" height="83" as="geometry" />
        </mxCell>
        <mxCell id="bmEGlPsIjCVy9guxLpB3-51" style="edgeStyle=orthogonalEdgeStyle;rounded=0;orthogonalLoop=1;jettySize=auto;html=1;entryX=0;entryY=0.5;entryDx=0;entryDy=0;" parent="1" source="bmEGlPsIjCVy9guxLpB3-9" target="bmEGlPsIjCVy9guxLpB3-4" edge="1">
          <mxGeometry relative="1" as="geometry">
            <Array as="points">
              <mxPoint x="540" y="497" />
              <mxPoint x="460" y="497" />
              <mxPoint x="460" y="160" />
            </Array>
          </mxGeometry>
        </mxCell>
        <mxCell id="bmEGlPsIjCVy9guxLpB3-9" value="count += 1" style="rounded=0;whiteSpace=wrap;html=1;" parent="1" vertex="1">
          <mxGeometry x="480" y="350" width="120" height="60" as="geometry" />
        </mxCell>
        <mxCell id="bmEGlPsIjCVy9guxLpB3-11" value="конец" style="ellipse;whiteSpace=wrap;html=1;" parent="1" vertex="1">
          <mxGeometry x="719.5" y="655" width="120" height="80" as="geometry" />
        </mxCell>
        <mxCell id="bmEGlPsIjCVy9guxLpB3-14" value="7" style="ellipse;whiteSpace=wrap;html=1;aspect=fixed;" parent="1" vertex="1">
          <mxGeometry x="87" y="705" width="30" height="30" as="geometry" />
        </mxCell>
        <mxCell id="bmEGlPsIjCVy9guxLpB3-48" style="edgeStyle=orthogonalEdgeStyle;rounded=0;orthogonalLoop=1;jettySize=auto;html=1;" parent="1" source="bmEGlPsIjCVy9guxLpB3-29" target="bmEGlPsIjCVy9guxLpB3-47" edge="1">
          <mxGeometry relative="1" as="geometry">
            <Array as="points">
              <mxPoint x="432" y="265" />
              <mxPoint x="432" y="671" />
              <mxPoint x="317" y="671" />
            </Array>
          </mxGeometry>
        </mxCell>
        <mxCell id="GMteoEHUk3SbCmujjQgq-16" value="" style="edgeStyle=orthogonalEdgeStyle;rounded=0;orthogonalLoop=1;jettySize=auto;html=1;" parent="1" source="bmEGlPsIjCVy9guxLpB3-29" target="bmEGlPsIjCVy9guxLpB3-1" edge="1">
          <mxGeometry relative="1" as="geometry" />
        </mxCell>
        <mxCell id="bmEGlPsIjCVy9guxLpB3-29" value="i = 0;i &amp;lt; lenmass; i++" style="shape=hexagon;perimeter=hexagonPerimeter2;whiteSpace=wrap;html=1;fixedSize=1;" parent="1" vertex="1">
          <mxGeometry x="236.5" y="226" width="131" height="80" as="geometry" />
        </mxCell>
        <mxCell id="bmEGlPsIjCVy9guxLpB3-35" value="" style="edgeStyle=orthogonalEdgeStyle;rounded=0;orthogonalLoop=1;jettySize=auto;html=1;" parent="1" source="bmEGlPsIjCVy9guxLpB3-31" target="bmEGlPsIjCVy9guxLpB3-34" edge="1">
          <mxGeometry relative="1" as="geometry" />
        </mxCell>
        <mxCell id="GMteoEHUk3SbCmujjQgq-19" style="edgeStyle=orthogonalEdgeStyle;rounded=0;orthogonalLoop=1;jettySize=auto;html=1;entryX=0;entryY=0.5;entryDx=0;entryDy=0;" parent="1" source="bmEGlPsIjCVy9guxLpB3-31" target="bmEGlPsIjCVy9guxLpB3-29" edge="1">
          <mxGeometry relative="1" as="geometry">
            <Array as="points">
              <mxPoint x="401" y="467" />
              <mxPoint x="401" y="662" />
              <mxPoint x="201" y="662" />
              <mxPoint x="201" y="266" />
            </Array>
          </mxGeometry>
        </mxCell>
        <mxCell id="bmEGlPsIjCVy9guxLpB3-31" value="введено не&lt;div&gt;целое число?&lt;/div&gt;" style="rhombus;whiteSpace=wrap;html=1;" parent="1" vertex="1">
          <mxGeometry x="221.5" y="422" width="161" height="91" as="geometry" />
        </mxCell>
        <mxCell id="GMteoEHUk3SbCmujjQgq-18" style="edgeStyle=orthogonalEdgeStyle;rounded=0;orthogonalLoop=1;jettySize=auto;html=1;entryX=0.5;entryY=0;entryDx=0;entryDy=0;" parent="1" source="bmEGlPsIjCVy9guxLpB3-34" target="bmEGlPsIjCVy9guxLpB3-1" edge="1">
          <mxGeometry relative="1" as="geometry">
            <Array as="points">
              <mxPoint x="302" y="634" />
              <mxPoint x="213" y="634" />
              <mxPoint x="213" y="317" />
              <mxPoint x="302" y="317" />
            </Array>
          </mxGeometry>
        </mxCell>
        <mxCell id="bmEGlPsIjCVy9guxLpB3-34" value="Введено некоректное значение" style="shape=document;whiteSpace=wrap;html=1;boundedLbl=1;" parent="1" vertex="1">
          <mxGeometry x="242" y="543" width="120" height="80" as="geometry" />
        </mxCell>
        <mxCell id="bmEGlPsIjCVy9guxLpB3-47" value="13" style="ellipse;whiteSpace=wrap;html=1;aspect=fixed;" parent="1" vertex="1">
          <mxGeometry x="301" y="693" width="30" height="30" as="geometry" />
        </mxCell>
        <mxCell id="bmEGlPsIjCVy9guxLpB3-50" value="" style="edgeStyle=orthogonalEdgeStyle;rounded=0;orthogonalLoop=1;jettySize=auto;html=1;" parent="1" source="bmEGlPsIjCVy9guxLpB3-49" target="bmEGlPsIjCVy9guxLpB3-4" edge="1">
          <mxGeometry relative="1" as="geometry" />
        </mxCell>
        <mxCell id="bmEGlPsIjCVy9guxLpB3-49" value="13" style="ellipse;whiteSpace=wrap;html=1;aspect=fixed;" parent="1" vertex="1">
          <mxGeometry x="530" y="75" width="20" height="20" as="geometry" />
        </mxCell>
        <mxCell id="F63GCX22Ur10yCFfF220-1" value="1" style="text;html=1;align=center;verticalAlign=middle;resizable=0;points=[];autosize=1;strokeColor=none;fillColor=none;" parent="1" vertex="1">
          <mxGeometry x="167" y="80" width="25" height="26" as="geometry" />
        </mxCell>
        <mxCell id="F63GCX22Ur10yCFfF220-2" value="2" style="text;html=1;align=center;verticalAlign=middle;resizable=0;points=[];autosize=1;strokeColor=none;fillColor=none;" parent="1" vertex="1">
          <mxGeometry x="163" y="172" width="25" height="26" as="geometry" />
        </mxCell>
        <mxCell id="F63GCX22Ur10yCFfF220-3" value="3" style="text;html=1;align=center;verticalAlign=middle;resizable=0;points=[];autosize=1;strokeColor=none;fillColor=none;" parent="1" vertex="1">
          <mxGeometry x="126" y="238" width="25" height="26" as="geometry" />
        </mxCell>
        <mxCell id="F63GCX22Ur10yCFfF220-4" value="4" style="text;html=1;align=center;verticalAlign=middle;resizable=0;points=[];autosize=1;strokeColor=none;fillColor=none;" parent="1" vertex="1">
          <mxGeometry x="118" y="354" width="25" height="26" as="geometry" />
        </mxCell>
        <mxCell id="F63GCX22Ur10yCFfF220-5" value="5" style="text;html=1;align=center;verticalAlign=middle;resizable=0;points=[];autosize=1;strokeColor=none;fillColor=none;" parent="1" vertex="1">
          <mxGeometry x="129.22" y="447" width="25" height="26" as="geometry" />
        </mxCell>
        <mxCell id="F63GCX22Ur10yCFfF220-6" value="6" style="text;html=1;align=center;verticalAlign=middle;resizable=0;points=[];autosize=1;strokeColor=none;fillColor=none;" parent="1" vertex="1">
          <mxGeometry x="143" y="595" width="25" height="26" as="geometry" />
        </mxCell>
        <mxCell id="F63GCX22Ur10yCFfF220-7" value="9" style="text;html=1;align=center;verticalAlign=middle;resizable=0;points=[];autosize=1;strokeColor=none;fillColor=none;" parent="1" vertex="1">
          <mxGeometry x="347" y="205" width="25" height="26" as="geometry" />
        </mxCell>
        <mxCell id="F63GCX22Ur10yCFfF220-8" value="10" style="text;html=1;align=center;verticalAlign=middle;resizable=0;points=[];autosize=1;strokeColor=none;fillColor=none;" parent="1" vertex="1">
          <mxGeometry x="349" y="311" width="31" height="26" as="geometry" />
        </mxCell>
        <mxCell id="F63GCX22Ur10yCFfF220-9" value="11" style="text;html=1;align=center;verticalAlign=middle;resizable=0;points=[];autosize=1;strokeColor=none;fillColor=none;" parent="1" vertex="1">
          <mxGeometry x="347.5" y="432" width="30" height="26" as="geometry" />
        </mxCell>
        <mxCell id="F63GCX22Ur10yCFfF220-11" value="12" style="text;html=1;align=center;verticalAlign=middle;resizable=0;points=[];autosize=1;strokeColor=none;fillColor=none;" parent="1" vertex="1">
          <mxGeometry x="342" y="517" width="31" height="26" as="geometry" />
        </mxCell>
        <mxCell id="F63GCX22Ur10yCFfF220-12" value="14" style="text;html=1;align=center;verticalAlign=middle;resizable=0;points=[];autosize=1;strokeColor=none;fillColor=none;" parent="1" vertex="1">
          <mxGeometry x="589" y="107" width="31" height="26" as="geometry" />
        </mxCell>
        <mxCell id="F63GCX22Ur10yCFfF220-13" value="15" style="text;html=1;align=center;verticalAlign=middle;resizable=0;points=[];autosize=1;strokeColor=none;fillColor=none;" parent="1" vertex="1">
          <mxGeometry x="581" y="221" width="31" height="26" as="geometry" />
        </mxCell>
        <mxCell id="F63GCX22Ur10yCFfF220-15" value="16" style="text;html=1;align=center;verticalAlign=middle;resizable=0;points=[];autosize=1;strokeColor=none;fillColor=none;" parent="1" vertex="1">
          <mxGeometry x="576" y="319" width="31" height="26" as="geometry" />
        </mxCell>
        <mxCell id="F63GCX22Ur10yCFfF220-18" value="Да" style="text;html=1;align=center;verticalAlign=middle;resizable=0;points=[];autosize=1;strokeColor=none;fillColor=none;" parent="1" vertex="1">
          <mxGeometry x="499" y="309" width="33" height="26" as="geometry" />
        </mxCell>
        <mxCell id="F63GCX22Ur10yCFfF220-19" value="Нет" style="text;html=1;align=center;verticalAlign=middle;resizable=0;points=[];autosize=1;strokeColor=none;fillColor=none;" parent="1" vertex="1">
          <mxGeometry x="590" y="244" width="38" height="26" as="geometry" />
        </mxCell>
        <mxCell id="P1nM6_UvGkQiOIyWBsLS-12" value="" style="edgeStyle=orthogonalEdgeStyle;rounded=0;orthogonalLoop=1;jettySize=auto;html=1;" parent="1" source="P1nM6_UvGkQiOIyWBsLS-5" target="P1nM6_UvGkQiOIyWBsLS-11" edge="1">
          <mxGeometry relative="1" as="geometry" />
        </mxCell>
        <mxCell id="P1nM6_UvGkQiOIyWBsLS-5" value="17" style="ellipse;whiteSpace=wrap;html=1;aspect=fixed;" parent="1" vertex="1">
          <mxGeometry x="755" y="62" width="30" height="30" as="geometry" />
        </mxCell>
        <mxCell id="P1nM6_UvGkQiOIyWBsLS-7" value="17" style="ellipse;whiteSpace=wrap;html=1;aspect=fixed;" parent="1" vertex="1">
          <mxGeometry x="542" y="546" width="50" height="50" as="geometry" />
        </mxCell>
        <mxCell id="IVB1yO799H7LrM7W40AV-7" value="" style="edgeStyle=orthogonalEdgeStyle;rounded=0;orthogonalLoop=1;jettySize=auto;html=1;" parent="1" source="P1nM6_UvGkQiOIyWBsLS-11" target="IVB1yO799H7LrM7W40AV-6" edge="1">
          <mxGeometry relative="1" as="geometry" />
        </mxCell>
        <mxCell id="mXQ_ZJh1T7watDNRMANd-2" style="edgeStyle=orthogonalEdgeStyle;rounded=0;orthogonalLoop=1;jettySize=auto;html=1;" parent="1" source="P1nM6_UvGkQiOIyWBsLS-11" target="P1nM6_UvGkQiOIyWBsLS-21" edge="1">
          <mxGeometry relative="1" as="geometry">
            <Array as="points">
              <mxPoint x="862" y="165" />
              <mxPoint x="862" y="527" />
              <mxPoint x="778" y="527" />
            </Array>
          </mxGeometry>
        </mxCell>
        <mxCell id="P1nM6_UvGkQiOIyWBsLS-11" value="i = 0; i &amp;lt; lenmass; i++" style="shape=hexagon;perimeter=hexagonPerimeter2;whiteSpace=wrap;html=1;fixedSize=1;" parent="1" vertex="1">
          <mxGeometry x="690.5" y="125" width="159" height="80" as="geometry" />
        </mxCell>
        <mxCell id="IVB1yO799H7LrM7W40AV-11" value="" style="edgeStyle=orthogonalEdgeStyle;rounded=0;orthogonalLoop=1;jettySize=auto;html=1;" parent="1" source="P1nM6_UvGkQiOIyWBsLS-13" target="IVB1yO799H7LrM7W40AV-8" edge="1">
          <mxGeometry relative="1" as="geometry" />
        </mxCell>
        <mxCell id="P1nM6_UvGkQiOIyWBsLS-13" value="nums2[count2] = nums[i]" style="whiteSpace=wrap;html=1;" parent="1" vertex="1">
          <mxGeometry x="710" y="356" width="120" height="60" as="geometry" />
        </mxCell>
        <mxCell id="P1nM6_UvGkQiOIyWBsLS-18" value="19" style="text;html=1;align=center;verticalAlign=middle;resizable=0;points=[];autosize=1;strokeColor=none;fillColor=none;" parent="1" vertex="1">
          <mxGeometry x="795" y="238" width="31" height="26" as="geometry" />
        </mxCell>
        <mxCell id="mXQ_ZJh1T7watDNRMANd-5" value="" style="edgeStyle=orthogonalEdgeStyle;rounded=0;orthogonalLoop=1;jettySize=auto;html=1;" parent="1" source="P1nM6_UvGkQiOIyWBsLS-21" target="bmEGlPsIjCVy9guxLpB3-11" edge="1">
          <mxGeometry relative="1" as="geometry" />
        </mxCell>
        <mxCell id="P1nM6_UvGkQiOIyWBsLS-21" value="&quot;Итоговый массив: &quot;+Arrays.toString(nums2)" style="shape=document;whiteSpace=wrap;html=1;boundedLbl=1;" parent="1" vertex="1">
          <mxGeometry x="712" y="543" width="135" height="80" as="geometry" />
        </mxCell>
        <mxCell id="GMteoEHUk3SbCmujjQgq-9" value="Да" style="text;html=1;align=center;verticalAlign=middle;resizable=0;points=[];autosize=1;strokeColor=none;fillColor=none;" parent="1" vertex="1">
          <mxGeometry x="58" y="443" width="33" height="26" as="geometry" />
        </mxCell>
        <mxCell id="GMteoEHUk3SbCmujjQgq-10" value="Нет" style="text;html=1;align=center;verticalAlign=middle;resizable=0;points=[];autosize=1;strokeColor=none;fillColor=none;" parent="1" vertex="1">
          <mxGeometry x="135" y="373" width="38" height="26" as="geometry" />
        </mxCell>
        <mxCell id="GMteoEHUk3SbCmujjQgq-20" value="Нет" style="text;html=1;align=center;verticalAlign=middle;resizable=0;points=[];autosize=1;strokeColor=none;fillColor=none;" parent="1" vertex="1">
          <mxGeometry x="380" y="431" width="38" height="26" as="geometry" />
        </mxCell>
        <mxCell id="GMteoEHUk3SbCmujjQgq-21" value="Да" style="text;html=1;align=center;verticalAlign=middle;resizable=0;points=[];autosize=1;strokeColor=none;fillColor=none;" parent="1" vertex="1">
          <mxGeometry x="268" y="504" width="33" height="26" as="geometry" />
        </mxCell>
        <mxCell id="IVB1yO799H7LrM7W40AV-3" style="edgeStyle=orthogonalEdgeStyle;rounded=0;orthogonalLoop=1;jettySize=auto;html=1;entryX=0.5;entryY=0;entryDx=0;entryDy=0;" parent="1" source="IVB1yO799H7LrM7W40AV-1" target="LBwWEz1FVwALZOgoAv8b-6" edge="1">
          <mxGeometry relative="1" as="geometry">
            <Array as="points">
              <mxPoint x="103" y="665" />
              <mxPoint x="3" y="665" />
              <mxPoint x="3" y="246" />
              <mxPoint x="103" y="246" />
            </Array>
          </mxGeometry>
        </mxCell>
        <mxCell id="IVB1yO799H7LrM7W40AV-1" value="Введите длину массива:" style="shape=document;whiteSpace=wrap;html=1;boundedLbl=1;" parent="1" vertex="1">
          <mxGeometry x="43" y="577" width="120" height="80" as="geometry" />
        </mxCell>
        <mxCell id="IVB1yO799H7LrM7W40AV-4" value="6" style="text;html=1;align=center;verticalAlign=middle;resizable=0;points=[];autosize=1;strokeColor=none;fillColor=none;" parent="1" vertex="1">
          <mxGeometry x="131" y="551" width="25" height="26" as="geometry" />
        </mxCell>
        <mxCell id="IVB1yO799H7LrM7W40AV-10" style="edgeStyle=orthogonalEdgeStyle;rounded=0;orthogonalLoop=1;jettySize=auto;html=1;" parent="1" source="IVB1yO799H7LrM7W40AV-6" target="P1nM6_UvGkQiOIyWBsLS-13" edge="1">
          <mxGeometry relative="1" as="geometry" />
        </mxCell>
        <mxCell id="mXQ_ZJh1T7watDNRMANd-4" style="edgeStyle=orthogonalEdgeStyle;rounded=0;orthogonalLoop=1;jettySize=auto;html=1;entryX=0;entryY=0.5;entryDx=0;entryDy=0;" parent="1" source="IVB1yO799H7LrM7W40AV-6" target="P1nM6_UvGkQiOIyWBsLS-11" edge="1">
          <mxGeometry relative="1" as="geometry">
            <Array as="points">
              <mxPoint x="845" y="292" />
              <mxPoint x="845" y="512" />
              <mxPoint x="770" y="512" />
              <mxPoint x="770" y="519" />
              <mxPoint x="679" y="519" />
              <mxPoint x="679" y="165" />
            </Array>
          </mxGeometry>
        </mxCell>
        <mxCell id="IVB1yO799H7LrM7W40AV-6" value="nums[i]%2!=0" style="rhombus;whiteSpace=wrap;html=1;" parent="1" vertex="1">
          <mxGeometry x="719.5" y="248" width="101" height="88" as="geometry" />
        </mxCell>
        <mxCell id="IVB1yO799H7LrM7W40AV-12" style="edgeStyle=orthogonalEdgeStyle;rounded=0;orthogonalLoop=1;jettySize=auto;html=1;entryX=0;entryY=0.5;entryDx=0;entryDy=0;" parent="1" source="IVB1yO799H7LrM7W40AV-8" target="P1nM6_UvGkQiOIyWBsLS-11" edge="1">
          <mxGeometry relative="1" as="geometry">
            <Array as="points">
              <mxPoint x="770" y="519" />
              <mxPoint x="678" y="519" />
              <mxPoint x="678" y="165" />
            </Array>
          </mxGeometry>
        </mxCell>
        <mxCell id="IVB1yO799H7LrM7W40AV-8" value="count2 += 1" style="whiteSpace=wrap;html=1;" parent="1" vertex="1">
          <mxGeometry x="710" y="442" width="120" height="60" as="geometry" />
        </mxCell>
        <mxCell id="IVB1yO799H7LrM7W40AV-13" value="18" style="text;html=1;align=center;verticalAlign=middle;resizable=0;points=[];autosize=1;strokeColor=none;fillColor=none;" parent="1" vertex="1">
          <mxGeometry x="826" y="107" width="31" height="26" as="geometry" />
        </mxCell>
        <mxCell id="IVB1yO799H7LrM7W40AV-14" value="20" style="text;html=1;align=center;verticalAlign=middle;resizable=0;points=[];autosize=1;strokeColor=none;fillColor=none;" parent="1" vertex="1">
          <mxGeometry x="801" y="327" width="31" height="26" as="geometry" />
        </mxCell>
        <mxCell id="IVB1yO799H7LrM7W40AV-15" value="21" style="text;html=1;align=center;verticalAlign=middle;resizable=0;points=[];autosize=1;strokeColor=none;fillColor=none;" parent="1" vertex="1">
          <mxGeometry x="811" y="419" width="31" height="26" as="geometry" />
        </mxCell>
        <mxCell id="mXQ_ZJh1T7watDNRMANd-6" value="22" style="text;html=1;align=center;verticalAlign=middle;resizable=0;points=[];autosize=1;strokeColor=none;fillColor=none;" parent="1" vertex="1">
          <mxGeometry x="842" y="536" width="31" height="26" as="geometry" />
        </mxCell>
        <mxCell id="mXQ_ZJh1T7watDNRMANd-7" value="23" style="text;html=1;align=center;verticalAlign=middle;resizable=0;points=[];autosize=1;strokeColor=none;fillColor=none;" parent="1" vertex="1">
          <mxGeometry x="795" y="626" width="31" height="26" as="geometry" />
        </mxCell>
        <mxCell id="mXQ_ZJh1T7watDNRMANd-8" value="Да" style="text;html=1;align=center;verticalAlign=middle;resizable=0;points=[];autosize=1;strokeColor=none;fillColor=none;" parent="1" vertex="1">
          <mxGeometry x="739" y="320" width="33" height="26" as="geometry" />
        </mxCell>
        <mxCell id="mXQ_ZJh1T7watDNRMANd-9" value="Нет" style="text;html=1;align=center;verticalAlign=middle;resizable=0;points=[];autosize=1;strokeColor=none;fillColor=none;" parent="1" vertex="1">
          <mxGeometry x="811" y="265" width="38" height="26" as="geometry" />
        </mxCell>
        <mxCell id="mXQ_ZJh1T7watDNRMANd-14" value="" style="edgeStyle=orthogonalEdgeStyle;rounded=0;orthogonalLoop=1;jettySize=auto;html=1;" parent="1" source="mXQ_ZJh1T7watDNRMANd-13" target="bmEGlPsIjCVy9guxLpB3-2" edge="1">
          <mxGeometry relative="1" as="geometry" />
        </mxCell>
        <mxCell id="mXQ_ZJh1T7watDNRMANd-13" value="7" style="ellipse;whiteSpace=wrap;html=1;aspect=fixed;" parent="1" vertex="1">
          <mxGeometry x="287" y="67" width="30" height="30" as="geometry" />
        </mxCell>
        <mxCell id="mXQ_ZJh1T7watDNRMANd-15" value="8" style="text;html=1;align=center;verticalAlign=middle;resizable=0;points=[];autosize=1;strokeColor=none;fillColor=none;" parent="1" vertex="1">
          <mxGeometry x="364" y="104" width="25" height="26" as="geometry" />
        </mxCell>
      </root>
    </mxGraphModel>
  </diagram>
</mxfile>
